Coordinates
version=1
nRows=12
nColumns=24
inDegrees=yes

Units are S.I. units (second, meters, Newtons, ...)
Angles are in degrees.

endheader
time	pelvis_tilt	pelvis_list	pelvis_rotation	pelvis_tx	pelvis_ty	pelvis_tz	hip_flexion_r	hip_adduction_r	hip_rotation_r	knee_angle_r	ankle_angle_r	subtalar_angle_r	mtp_angle_r	hip_flexion_l	hip_adduction_l	hip_rotation_l	knee_angle_l	ankle_angle_l	subtalar_angle_l	mtp_angle_l	lumbar_extension	lumbar_bending	lumbar_rotation
      6.04500000	     36.11558355	      8.61987500	      6.06419575	      1.09515814	      0.65367814	     -0.23667303	    -16.39105876	     -8.01174015	    -13.21932433	      3.75504149	     12.32701425	      8.95600764	      0.00000000	    -47.60518862	      1.94506959	      5.17326350	    -19.98110948	     27.10328015	     17.12590434	      0.00000000	    -64.09352437	      0.03096641	    -13.45789235
      6.05000000	     36.21426248	      8.49892237	      6.15009342	      1.10131019	      0.65354914	     -0.23612595	    -16.37829590	     -7.81153748	    -13.25374668	      2.85195581	     12.27710743	      8.98463263	      0.00000000	    -47.86694781	      1.60273893	      5.13420594	    -20.77897331	     26.57203746	     17.24394719	      0.00000000	    -64.09171616	      0.22185864	    -13.44816812
      6.05500000	     36.47345071	      8.29835659	      6.29678587	      1.10758888	      0.65357156	     -0.23556446	    -16.60163339	     -7.46462299	    -13.36644328	      1.96373336	     12.10924030	      8.99475050	      0.00000000	    -48.28764301	      1.08203901	      4.96023878	    -21.59892375	     26.05251972	     17.74225601	      0.00000000	    -64.21009490	      0.52502754	    -13.32761226
      6.06000000	     36.60696882	      8.15129586	      6.39957850	      1.11380236	      0.65360254	     -0.23509225	    -16.62679305	     -7.24250486	    -13.38162040	      0.90717060	     11.95826326	      9.02998804	      0.00000000	    -48.49629991	      0.70820514	      4.89348010	    -22.55327612	     25.33431990	     17.87799256	      0.00000000	    -64.22846126	      0.77596630	    -13.30994652
      6.06500000	     36.78466955	      7.98990595	      6.50954396	      1.11996606	      0.65375159	     -0.23456496	    -16.71338710	     -6.98428672	    -13.42155791	     -0.15341890	     11.57273450	      8.98261683	      0.00000000	    -48.68381953	      0.29324017	      4.75973839	    -23.60793596	     24.53515517	     18.18206115	      0.00000000	    -64.30885545	      1.02533304	    -13.21717929
      6.07000000	     37.02957268	      7.73203827	      6.65963700	      1.12639225	      0.65400479	     -0.23405088	    -16.91453074	     -6.58750429	    -13.30576382	     -1.20956164	     11.18944957	      8.67760763	      0.00000000	    -48.95869358	     -0.26761147	      4.46942159	    -24.63275692	     23.62748083	     18.64933273	      0.00000000	    -64.38269268	      1.38457224	    -13.10454843
      6.07500000	     37.20877519	      7.55504039	      6.77523051	      1.13265547	      0.65431132	     -0.23358202	    -17.01340293	     -6.32232280	    -13.26455772	     -2.33999031	     10.77256115	      8.64685414	      0.00000000	    -49.05967041	     -0.69067786	      4.27324556	    -25.81376519	     22.51726464	     18.85860549	      0.00000000	    -64.44111059	      1.66726005	    -13.04010291
      6.08000000	     37.39089182	      7.35081902	      6.90500945	      1.13899241	      0.65470939	     -0.23308648	    -17.13783362	     -6.01024529	    -13.12481453	     -3.45624117	     10.27584984	      8.43591869	      0.00000000	    -49.11420363	     -1.16278599	      3.98624920	    -27.05724704	     21.26126709	     19.14730636	      0.00000000	    -64.48735891	      1.96842804	    -12.95464256
      6.08500000	     37.60196518	      7.05011316	      6.97161986	      1.14539087	      0.65512979	     -0.23250853	    -17.24858771	     -5.59590449	    -12.65489222	     -4.62148282	      9.78040068	      7.80635299	      0.00000000	    -49.16789195	     -1.68276958	      3.50314385	    -28.33924030	     19.91743586	     19.49143286	      0.00000000	    -64.54295073	      2.29039026	    -12.77292403
      6.09000000	     37.77146068	      6.78342014	      6.98138293	      1.15173614	      0.65560933	     -0.23192381	    -17.30442620	     -5.25076696	    -12.22426604	     -5.80428976	      9.28639686	      7.40967953	      0.00000000	    -49.10501238	     -2.11108810	      3.00430507	    -29.70980484	     18.32602455	     19.69093343	      0.00000000	    -64.58110085	      2.53802380	    -12.57760197
      6.09500000	     37.93817039	      6.59989573	      7.12710972	      1.15812413	      0.65620085	     -0.23141610	    -17.45105389	     -4.94756489	    -12.07231489	     -6.91862161	      8.86522361	      7.33421602	      0.00000000	    -48.96101236	     -2.58909067	      2.62319422	    -31.16177492	     16.54377924	     19.84263700	      0.00000000	    -64.60851465	      2.82614100	    -12.51723005
      6.10000000	     38.07241963	      6.33577385	      7.08670466	      1.16442369	      0.65674371	     -0.23069241	    -17.45920387	     -4.58696733	    -11.33965437	     -8.10667803	      8.37474829	      6.48346948	      0.00000000	    -48.72011809	     -2.99379741	      1.98317059	    -32.68859517	     14.62363701	     19.88245636	      0.00000000	    -64.63195004	      3.01400645	    -12.33819370
